PathFileType	4	(X/Y/Z)	RBDS03static.trc
DataRate	CameraRate	NumFrames	NumMarkers	Units	OrigDataRate	OrigDataStartFrame	OrigNumFrames
150.000000	150.000000	4	48	mm	150.000000	37	150
Frame#	Time	L.Ankle			L.Ankle.Medial			L.ASIS			L.GTR			L.Heel.Bottom			L.Heel.Lateral			L.Heel.Top			L.HF			L.Iliac.Crest			L.Knee			L.Knee.Medial			L.MT1			L.MT2			L.MT5			L.PSIS			L.Shank.Bottom.Lateral			L.Shank.Bottom.Medial			L.Shank.Top.Lateral			L.Shank.Top.Medial			L.Thigh.Bottom.Lateral			L.Thigh.Bottom.Medial			L.Thigh.Top.Lateral			L.Thigh.Top.Medial			L.TT			R.Ankle			R.Ankle.Medial			R.ASIS			R.GTR			R.Heel.Bottom			R.Heel.Lateral			R.Heel.Top			R.HF			R.Iliac.Crest			R.Knee			R.Knee.Medial			R.MT1			R.MT2			R.MT5			R.PSIS			R.Shank.Bottom.Lateral			R.Shank.Bottom.Medial			R.Shank.Top.Lateral			R.Shank.Top.Medial			R.Thigh.Bottom.Lateral			R.Thigh.Bottom.Medial			R.Thigh.Top.Lateral			R.Thigh.Top.Medial			R.TT			
		X1	Y1	Z1	X2	Y2	Z2	X3	Y3	Z3	X4	Y4	Z4	X5	Y5	Z5	X6	Y6	Z6	X7	Y7	Z7	X8	Y8	Z8	X9	Y9	Z9	X10	Y10	Z10	X11	Y11	Z11	X12	Y12	Z12	X13	Y13	Z13	X14	Y14	Z14	X15	Y15	Z15	X16	Y16	Z16	X17	Y17	Z17	X18	Y18	Z18	X19	Y19	Z19	X20	Y20	Z20	X21	Y21	Z21	X22	Y22	Z22	X23	Y23	Z23	X24	Y24	Z24	X25	Y25	Z25	X26	Y26	Z26	X27	Y27	Z27	X28	Y28	Z28	X29	Y29	Z29	X30	Y30	Z30	X31	Y31	Z31	X32	Y32	Z32	X33	Y33	Z33	X34	Y34	Z34	X35	Y35	Z35	X36	Y36	Z36	X37	Y37	Z37	X38	Y38	Z38	X39	Y39	Z39	X40	Y40	Z40	X41	Y41	Z41	X42	Y42	Z42	X43	Y43	Z43	X44	Y44	Z44	X45	Y45	Z45	X46	Y46	Z46	X47	Y47	Z47	X48	Y48	Z48	

38	0.2466666666666667	716.8462524414063	111.4279174804688	1045.433227539063	727.4125366210938	119.9276428222656	1126.185302734375	848.8792724609375	1064.672973632813	1104.02490234375	782.2883911132813	959.8807373046875	1050.254638671875	638.2037353515625	42.61587142944336	1086.639770507813	674.6442260742188	58.10807800292969	1043.216552734375	649.1511840820313	92.82432556152344	1089.80078125	721.9780883789063	496.4075927734375	1048.130737304688	766.4087524414063	1121.949584960938	1064.606323242188	721.0419921875	552.342529296875	1055.807006835938	722.3259887695313	536.1659545898438	1169.982666015625	859.2137451171875	62.14306259155273	1140.592407226563	867.0599365234375	73.53337860107422	1099.836669921875	835.162841796875	55.38192367553711	1031.856201171875	687.641357421875	1080.669677734375	1181.778686523438	710.4625244140625	186.4196319580078	1043.71826171875	666.8648071289063	185.6776885986328	1076.519653320313	701.6802368164063	265.43505859375	1032.710815429688	659.0018920898438	265.6140441894531	1065.050170898438	736.22265625	644.0924682617188	1048.921020507813	677.2366333007813	650.3130493164063	1093.358520507813	738.2634887695313	754.056396484375	1039.43310546875	683.7349243164063	760.2958374023438	1083.43896484375	772.8539428710938	476.9109191894531	1094.781127929688	708.57421875	110.2988357543945	1411.295654296875	728.0557861328125	127.5099487304688	1333.433471679688	872.4479370117188	1072.02880859375	1316.656982421875	813.0553588867188	968.0657348632813	1386.034912109375	631.636474609375	45.18800735473633	1364.967163085938	668.6973876953125	66.58250427246094	1410.9716796875	641.8632202148438	93.798828125	1364.448608398438	724.5216064453125	498.8852844238281	1410.034545898438	805.864990234375	1134.443969726563	1363.064086914063	728.1717529296875	565.7201538085938	1400.076782226563	730.3046875	541.6162109375	1286.312744140625	844.8114013671875	58.14557647705078	1322.957763671875	861.8912963867188	75.81134796142578	1371.192993164063	824.9560546875	51.39338684082031	1437.772094726563	697.7086181640625	1084.145629882813	1264.27880859375	694.707763671875	179.9028930664063	1413.338989257813	662.1495361328125	183.3309783935547	1373.091186523438	688.4729614257813	264.1868896484375	1423.125	655.813232421875	263.5220642089844	1380.08349609375	766.0410766601563	674.195068359375	1406.541137695313	699.5703735351563	675.5574951171875	1375.183837890625	764.633056640625	785.2365112304688	1409.233764648438	703.5037231445313	785.81884765625	1375.92626953125	778.8341674804688	478.3479614257813	1368.730834960938	
39	0.2533333333333334	716.8446044921875	111.4177932739258	1045.420166015625	727.443115234375	119.7663803100586	1125.790893554688	848.873046875	1064.66162109375	1104.0634765625	782.28173828125	959.8615112304688	1050.277221679688	638.2042236328125	42.61346435546875	1086.6376953125	674.64404296875	58.08883666992188	1043.215454101563	649.1554565429688	92.82140350341797	1089.805541992188	721.9713745117188	496.3922424316406	1048.127075195313	766.4049072265625	1121.9326171875	1064.608154296875	721.0460815429688	552.341064453125	1055.814086914063	722.309814453125	536.1685791015625	1169.984985351563	859.2107543945313	62.1352424621582	1140.596069335938	867.0633544921875	73.51707458496094	1099.83251953125	835.15185546875	55.38043594360352	1031.853881835938	687.6229248046875	1080.681762695313	1181.7783203125	710.4519653320313	186.4080352783203	1043.709716796875	666.8540649414063	185.6849670410156	1076.509643554688	701.675537109375	265.4306945800781	1032.714111328125	658.9990844726563	265.6151123046875	1065.052734375	736.2201538085938	644.0823974609375	1048.928100585938	677.2230224609375	650.3109130859375	1093.357543945313	738.2540893554688	754.0485229492188	1039.426513671875	683.7166137695313	760.289306640625	1083.430419921875	772.8326416015625	476.8930358886719	1094.770751953125	708.5843505859375	110.2940139770508	1411.281127929688	728.0673828125	127.5018539428711	1333.43896484375	872.419677734375	1072.02734375	1316.653930664063	813.02978515625	968.06884765625	1386.0341796875	631.6375122070313	45.18225479125977	1364.967407226563	668.689697265625	66.58726501464844	1410.969970703125	641.8702392578125	93.78776550292969	1364.458618164063	724.5188598632813	498.8998413085938	1410.040405273438	805.828857421875	1134.4453125	1363.060424804688	728.1580810546875	565.7251586914063	1400.074829101563	730.3326416015625	541.6082763671875	1286.312866210938	844.8094482421875	58.13611602783203	1322.952270507813	861.8936767578125	75.80076599121094	1371.184326171875	824.9591064453125	51.38358688354492	1437.761962890625	697.6926879882813	1084.135131835938	1264.273559570313	694.7085571289063	179.8999938964844	1413.342407226563	662.1466674804688	183.3343963623047	1373.084838867188	688.4713134765625	264.1873168945313	1423.123413085938	655.8140869140625	263.5205993652344	1380.078735351563	766.0224609375	674.1986694335938	1406.549682617188	699.5435791015625	675.5556640625	1375.179809570313	764.6165771484375	785.2374877929688	1409.24462890625	703.4885864257813	785.8208618164063	1375.91650390625	778.8259887695313	478.3450927734375	1368.727294921875	
40	0.26	716.8375244140625	111.4159698486328	1045.42529296875	727.4080200195313	119.9243011474609	1126.185424804688	848.8467407226563	1064.670043945313	1104.03466796875	782.2506713867188	959.8712768554688	1050.249389648438	638.2022705078125	42.61395645141602	1086.6328125	674.6351318359375	58.09827423095703	1043.209838867188	649.1602783203125	92.81553649902344	1089.806884765625	721.960693359375	496.3903503417969	1048.1220703125	766.3866577148438	1121.942138671875	1064.587524414063	721.0210571289063	552.3399047851563	1055.808959960938	722.2819213867188	536.1766357421875	1169.9892578125	859.2001342773438	62.14634704589844	1140.584350585938	867.0616455078125	73.52734375	1099.822631835938	835.1513061523438	55.37268447875977	1031.8515625	687.602294921875	1080.681396484375	1181.75732421875	710.4495849609375	186.4154052734375	1043.706909179688	666.853759765625	185.6695251464844	1076.508544921875	701.6560668945313	265.4349060058594	1032.702392578125	658.9878540039063	265.6094055175781	1065.039428710938	736.200927734375	644.0797119140625	1048.919067382813	677.20556640625	650.312744140625	1093.374145507813	738.22705078125	754.0523071289063	1039.415405273438	683.6994018554688	760.2872924804688	1083.423095703125	772.8302612304688	476.8874816894531	1094.763061523438	708.5777587890625	110.294189453125	1411.276733398438	728.0657958984375	127.5011367797852	1333.44091796875	872.38330078125	1072.036010742188	1316.653686523438	813.0072631835938	968.0699462890625	1386.040405273438	631.629638671875	45.18779754638672	1364.970581054688	668.6941528320313	66.5845947265625	1410.96826171875	641.85546875	93.79411315917969	1364.438110351563	724.5036010742188	498.8865966796875	1410.030883789063	805.8004760742188	1134.445434570313	1363.0537109375	728.1522216796875	565.7221069335938	1400.075317382813	730.2689208984375	541.6176147460938	1286.31396484375	844.7938842773438	58.13413619995117	1322.947998046875	861.8894653320313	75.80612182617188	1371.183471679688	824.9439086914063	51.39013671875	1437.75927734375	697.6734008789063	1084.133911132813	1264.267822265625	694.7108154296875	179.9028930664063	1413.34228515625	662.1459350585938	183.3341979980469	1373.092651367188	688.4638671875	264.1887512207031	1423.127685546875	655.8080444335938	263.5165710449219	1380.0888671875	766.0049438476563	674.20703125	1406.546142578125	699.5341186523438	675.5491943359375	1375.1728515625	764.58056640625	785.2399291992188	1409.236572265625	703.4612426757813	785.8154907226563	1375.9072265625	778.8206176757813	478.341796875	1368.725219726563	
41	0.2666666666666667	716.8429565429688	111.4259262084961	1045.432495117188	727.4052734375	119.923713684082	1126.193237304688	848.85009765625	1064.67529296875	1104.061279296875	782.238525390625	959.8876953125	1050.251098632813	638.1966552734375	42.60576248168945	1086.632446289063	674.6370239257813	58.09730911254883	1043.224243164063	649.1574096679688	92.81667327880859	1089.801879882813	721.9613647460938	496.4091186523438	1048.138549804688	766.380615234375	1121.94873046875	1064.5908203125	721.0302734375	552.342041015625	1055.8232421875	722.2794189453125	536.1622314453125	1169.98388671875	859.2118530273438	62.16283798217773	1140.608520507813	867.05517578125	73.54174041748047	1099.831298828125	835.1557006835938	55.38990783691406	1031.855590820313	687.5835571289063	1080.671752929688	1181.756591796875	710.4498291015625	186.4103393554688	1043.71240234375	666.8619384765625	185.6615295410156	1076.512939453125	701.6727294921875	265.4256286621094	1032.704833984375	658.9887084960938	265.6050415039063	1065.050903320313	736.2078247070313	644.0836791992188	1048.9326171875	677.1973876953125	650.3090209960938	1093.352905273438	738.2219848632813	754.050537109375	1039.425903320313	683.6823120117188	760.29931640625	1083.441772460938	772.8311157226563	476.9123840332031	1094.797485351563	708.5632934570313	110.2990493774414	1411.280395507813	728.0864868164063	127.500114440918	1333.457885742188	872.37255859375	1072.049438476563	1316.67919921875	812.9885864257813	968.0814208984375	1386.042602539063	631.62841796875	45.19458389282227	1364.969482421875	668.695068359375	66.58079528808594	1410.969970703125	641.8578491210938	93.80123138427734	1364.458862304688	724.4878540039063	498.8982849121094	1410.044311523438	805.763427734375	1134.446044921875	1363.061889648438	728.1442260742188	565.7139892578125	1400.082397460938	730.2870483398438	541.6170043945313	1286.319091796875	844.8125	58.14245986938477	1322.96435546875	861.8958129882813	75.81571960449219	1371.189575195313	824.9569702148438	51.40215301513672	1437.765380859375	697.6461791992188	1084.134521484375	1264.262817382813	694.7017211914063	179.8987121582031	1413.346313476563	662.1476440429688	183.3305816650391	1373.081909179688	688.4552001953125	264.1938781738281	1423.127197265625	655.8031005859375	263.5154724121094	1380.083374023438	765.98779296875	674.2034912109375	1406.549682617188	699.5066528320313	675.54541015625	1375.167114257813	764.5614624023438	785.24072265625	1409.243041992188	703.4392700195313	785.8193359375	1375.915283203125	778.8145141601563	478.3617553710938	1368.758056640625	
